#!OML:ASF F:\VICON\USERDATA\INSTALL\rory3\rory3.ASF
:FULLY-SPECIFIED
:DEGREES
1969
root -1.40406 17.3571 5.35384 354.661 -104.541 -356.001
lowerback 3.57433 -2.13348 -5.92774
upperback -3.52687 -3.29837 -0.578515
thorax -5.38524 -1.43279 2.97858
lowerneck -10.4026 -5.14869 -17.3742
upperneck -21.9121 -5.54247 13.7095
head -3.96913 -2.67979 7.36045
rclavicle 3.53837e-014 1.74931e-014
rhumerus 88.2974 -35.1072 -37.3768
rradius 30.3154
rwrist 16.9827
rhand -38.2146 -5.07441
rfingers 7.12502
rthumb -11.2462 -34.753
lclavicle 3.53837e-014 1.74931e-014
lhumerus 85.4798 31.7121 38.2514
lradius 29.7689
lwrist 25.2145
lhand -11.5268 34.8539
lfingers 7.12502
lthumb 14.5129 64.3263
rfemur -13.9434 12.1397 10.7914
rtibia 36.6274
rfoot -16.561 4.44903
rtoes -0.0351769
lfemur -5.07949 -2.71644 -13.9583
ltibia 31.5957
lfoot -20.0925 3.31221
ltoes -20.0295
1970
root -1.39578 17.3565 5.40382 354.592 -104.52 -355.899
lowerback 3.53415 -2.25331 -5.94419
upperback -3.51727 -3.45438 -0.5515
thorax -5.33509 -1.51061 3.02434
lowerneck -10.4503 -5.17109 -17.37
upperneck -21.8936 -5.5827 13.6421
head -3.95511 -2.69883 7.3337
rclavicle 6.60959e-014 0
rhumerus 88.0418 -35.1676 -37.071
rradius 30.3065
rwrist 16.6119
rhand -38.2566 -4.61811
rfingers 7.12502
rthumb -11.2867 -34.2944
lclavicle 6.60959e-014 0
lhumerus 85.7527 31.5164 38.3329
lradius 29.9272
lwrist 25.1684
lhand -11.3651 34.5485
lfingers 7.12502
lthumb 14.6687 64.0097
rfemur -14.0473 11.9997 10.6307
rtibia 36.5766
rfoot -16.235 4.37494
rtoes -0.244771
lfemur -5.15124 -2.64041 -14.0646
ltibia 31.5022
lfoot -20.0148 3.17444
ltoes -20.146
1971
root -1.38936 17.3653 5.45065 354.331 -104.564 -355.6
lowerback 3.51034 -2.37179 -5.9533
upperback -3.55686 -3.61134 -0.503302
thorax -5.34505 -1.58615 3.09016
lowerneck -10.5328 -5.21868 -17.363
upperneck -21.7698 -5.63567 13.6584
head -3.89526 -2.72678 7.327
rclavicle -7.13637e-014 -1.27222e-014
rhumerus 87.8588 -35.1664 -36.8356
rradius 30.2841
rwrist 16.355
rhand -38.381 -4.11512
rfingers 7.12502
rthumb -11.4067 -33.7849
lclavicle -7.13637e-014 -1.27222e-014
lhumerus 85.5562 31.3767 37.8598
lradius 30.2428
lwrist 25.4669
lhand -11.2911 34.221
lfingers 7.12502
lthumb 14.7401 63.6769
rfemur -14.168 12.002 10.5164
rtibia 36.5243
rfoot -15.9001 4.37855
rtoes 0.956151
lfemur -5.24927 -2.43677 -14.0657
ltibia 31.4752
lfoot -19.9183 2.82359
ltoes -19.4182
1972
root -1.38192 17.3794 5.49611 354.193 -104.665 -355.382
lowerback 3.44581 -2.47685 -5.97243
upperback -3.59291 -3.74637 -0.429248
thorax -5.32747 -1.65087 3.18444
lowerneck -10.5372 -5.2493 -17.5858
upperneck -21.7788 -5.65465 13.7734
head -3.88349 -2.72799 7.40293
rclavicle 4.28381e-014 2.3059e-014
rhumerus 87.9766 -35.138 -36.8743
rradius 30.2012
rwrist 16.5466
rhand -38.5721 -3.62536
rfingers 7.12502
rthumb -11.5911 -33.2848
lclavicle 4.28381e-014 2.3059e-014
lhumerus 85.2773 31.3154 37.3271
lradius 30.5626
lwrist 25.7767
lhand -11.1646 33.9528
lfingers 7.12502
lthumb 14.8619 63.3997
rfemur -14.3614 12.1578 10.3968
rtibia 36.4882
rfoot -15.639 4.25057
rtoes 1.95883
lfemur -5.41389 -2.27765 -14.1021
ltibia 31.5198
lfoot -19.8183 2.57486
ltoes -18.8143
1973
root -1.36899 17.3882 5.53991 354.338 -104.72 -355.558
lowerback 3.5173 -2.54159 -6.13797
upperback -3.58948 -3.84645 -0.403127
thorax -5.34411 -1.69262 3.31407
lowerneck -10.4084 -5.26152 -17.7332
upperneck -21.974 -5.69121 13.8056
head -3.95394 -2.74248 7.45152
rclavicle -7.17613e-014 -1.03368e-014
rhumerus 87.88 -35.2342 -36.7475
rradius 30.112
rwrist 16.8976
rhand -38.9779 -3.19893
rfingers 7.12502
rthumb -11.9824 -32.836
lclavicle -7.17613e-014 -1.03368e-014
lhumerus 85.283 31.1019 37.0881
lradius 30.8161
lwrist 25.992
lhand -11.2726 33.9607
lfingers 7.12502
lthumb 14.7579 63.4153
rfemur -14.4635 12.1603 10.2098
rtibia 36.4848
rfoot -15.3789 4.06442
rtoes 1.44047
lfemur -5.53658 -2.12388 -14.2554
ltibia 31.6147
lfoot -19.7486 2.32246
ltoes -18.5289
1974
root -1.35387 17.3913 5.58156 354.103 -104.74 -355.393
lowerback 3.63658 -2.59664 -6.20299
upperback -3.57097 -3.9311 -0.399583
thorax -5.38038 -1.73044 3.36576
lowerneck -10.4002 -5.29982 -17.7272
upperneck -22.0192 -5.76547 13.7134
head -3.96474 -2.7777 7.41959
rclavicle 3.90612e-014 0
rhumerus 87.7045 -35.3968 -36.4965
rradius 29.8597
rwrist 17.3404
rhand -39.5489 -2.64481
rfingers 7.12502
rthumb -12.5329 -32.2489
lclavicle 3.90612e-014 0
lhumerus 85.1156 30.8553 36.529
lradius 31.2016
lwrist 26.3816
lhand -11.5749 34.2062
lfingers 7.12502
lthumb 14.4666 63.6819
rfemur -14.5199 11.9042 10.16
rtibia 36.5582
rfoot -15.11 3.87321
rtoes -0.0726818
lfemur -5.64721 -1.70966 -14.2723
ltibia 31.7186
lfoot -19.6783 1.93831
ltoes -18.778
1975
root -1.33896 17.398 5.62037 353.935 -104.852 -355.182
lowerback 3.61582 -2.65305 -6.18883
upperback -3.60076 -4.01068 -0.464949
thorax -5.39758 -1.77143 3.29513
lowerneck -10.4595 -5.34657 -17.6194
upperneck -21.9276 -5.83174 13.692
head -3.92043 -2.81786 7.38467
rclavicle -3.44891e-014 -2.06736e-014
rhumerus 87.4891 -35.5767 -36.3422
rradius 29.7627
rwrist 17.3392
rhand -39.8082 -2.31496
rfingers 7.12502
rthumb -12.7829 -31.9036
lclavicle -3.44891e-014 -2.06736e-014
lhumerus 84.9074 30.5441 35.8505
lradius 31.597
lwrist 26.6611
lhand -11.5788 34.0921
lfingers 7.12502
lthumb 14.4628 63.5681
rfemur -14.7571 11.6332 10.1303
rtibia 36.731
rfoot -14.9662 3.67493
rtoes -1.35089
lfemur -5.84469 -1.17733 -14.2411
ltibia 31.7947
lfoot -19.6389 1.50339
ltoes -18.7049
1976
root -1.32143 17.4054 5.65672 354.284 -105.049 -355.466
lowerback 3.61237 -2.71209 -6.33306
upperback -3.70132 -4.11114 -0.535096
thorax -5.48886 -1.81339 3.31237
lowerneck -10.3745 -5.32253 -17.489
upperneck -21.9431 -5.82902 13.6661
head -3.94236 -2.82799 7.35742
rclavicle 1.5704e-014 2.14687e-014
rhumerus 87.3991 -35.6003 -36.3974
rradius 29.8075
rwrist 17.2116
rhand -39.7961 -2.17287
rfingers 7.12502
rthumb -12.7712 -31.7623
lclavicle 1.5704e-014 2.14687e-014
lhumerus 84.338 30.3192 34.8442
lradius 31.999
lwrist 27.0931
lhand -11.1515 33.807
lfingers 7.12502
lthumb 14.8745 63.253
rfemur -15.0867 11.3634 9.95884
rtibia 36.9578
rfoot -14.9145 3.49096
rtoes -2.84211
lfemur -6.04185 -0.74538 -14.3627
ltibia 31.8632
lfoot -19.6131 1.14871
ltoes -18.2236
1977
root -1.30338 17.4111 5.6949 354.356 -105.239 -355.551
lowerback 3.62555 -2.74826 -6.41221
upperback -3.70327 -4.16626 -0.539481
thorax -5.4885 -1.83769 3.35626
lowerneck -10.3291 -5.34287 -17.6657
upperneck -22.0371 -5.83768 13.8541
head -3.96134 -2.83206 7.45604
rclavicle -1.90833e-014 1.27222e-014
rhumerus 87.6728 -35.6324 -36.6482
rradius 29.6794
rwrist 17.3894
rhand -39.7513 -2.0497
rfingers 7.12502
rthumb -12.7281 -31.6418
lclavicle -1.90833e-014 1.27222e-014
lhumerus 83.8693 30.1538 33.9932
lradius 32.326
lwrist 27.4137
lhand -11.3072 33.8081
lfingers 7.12502
lthumb 14.7246 63.2651
rfemur -15.2937 10.9816 9.89097
rtibia 37.2144
rfoot -15.0804 3.23558
rtoes -5.38123
lfemur -6.10289 -0.610565 -14.5002
ltibia 31.9112
lfoot -19.5885 1.20873
ltoes -18.2734
1978
root -1.28474 17.4148 5.73504 353.648 -105.424 -354.869
lowerback 3.65518 -2.78161 -6.21537
upperback -3.65177 -4.19353 -0.4991
thorax -5.45696 -1.85938 3.29091
lowerneck -10.4369 -5.38141 -17.7201
upperneck -22.0861 -5.88915 13.819
head -3.95478 -2.85412 7.45133
rclavicle -3.94588e-014 -1.03368e-014
rhumerus 88.0048 -35.7475 -36.8692
rradius 29.5345
rwrist 17.4584
rhand -39.525 -2.13622
rfingers 7.12502
rthumb -12.5099 -31.7418
lclavicle -3.94588e-014 -1.03368e-014
lhumerus 83.6766 29.9125 33.5519
lradius 32.5743
lwrist 27.3842
lhand -11.6795 33.6996
lfingers 7.12502
lthumb 14.3659 63.1825
rfemur -15.423 10.6312 10.08
rtibia 37.5036
rfoot -15.4655 3.10717
rtoes -7.5602
lfemur -6.12293 -0.652626 -14.4444
ltibia 31.9454
lfoot -19.5073 1.51205
ltoes -18.1432
1979
root -1.26408 17.4198 5.77316 352.779 -105.7 -354.045
lowerback 3.72475 -2.79233 -5.93892
upperback -3.62374 -4.19198 -0.490002
thorax -5.48352 -1.86833 3.15036
lowerneck -10.6161 -5.38699 -17.6377
upperneck -21.9439 -5.89508 13.6891
head -3.89358 -2.85572 7.38137
rclavicle 4.87022e-015 1.11319e-014
rhumerus 88.2902 -35.8099 -37.2585
rradius 29.4853
rwrist 17.6499
rhand -39.3081 -2.43145
rfingers 7.12502
rthumb -12.3007 -32.0496
lclavicle 4.87022e-015 1.11319e-014
lhumerus 83.3366 29.6527 32.8935
lradius 32.8581
lwrist 27.3975
lhand -11.7141 33.5814
lfingers 7.12502
lthumb 14.3325 63.0667
rfemur -15.5622 10.288 10.3183
rtibia 37.8549
rfoot -15.8994 3.30305
rtoes -8.52927
lfemur -6.08621 -0.702852 -14.3458
ltibia 31.9474
lfoot -19.457 1.97536
ltoes -18.4992
1980
root -1.2419 17.4242 5.80977 352.148 -105.907 -353.48
lowerback 3.84775 -2.76894 -5.83349
upperback -3.6287 -4.15938 -0.444635
thorax -5.56535 -1.8518 3.14456
lowerneck -10.7236 -5.44846 -17.7872
upperneck -21.7915 -5.9378 13.7617
head -3.81596 -2.86708 7.41761
rclavicle -3.83654e-014 -1.66979e-014
rhumerus 88.4022 -35.9261 -37.2937
rradius 29.4462
rwrist 17.6789
rhand -39.1531 -2.64956
rfingers 7.12502
rthumb -12.1513 -32.2767
lclavicle -3.83654e-014 -1.66979e-014
lhumerus 83.3478 29.193 32.8146
lradius 32.953
lwrist 27.1149
lhand -11.5329 33.4369
lfingers 7.12502
lthumb 14.5071 62.9097
rfemur -15.6519 9.8407 10.5124
rtibia 38.2779
rfoot -16.4756 3.35083
rtoes -8.45848
lfemur -6.05047 -0.794981 -14.3228
ltibia 31.9386
lfoot -19.4339 2.35738
ltoes -18.9206
1981
root -1.21939 17.4328 5.84635 352.074 -106.15 -353.442
lowerback 3.83445 -2.73912 -5.83638
upperback -3.59808 -4.11592 -0.431978
thorax -5.52825 -1.83143 3.15429
lowerneck -10.78 -5.50379 -17.889
upperneck -21.8147 -5.99546 13.8332
head -3.79948 -2.8929 7.45566
rclavicle 2.31584e-014 8.74653e-015
rhumerus 88.8427 -35.9985 -37.6406
rradius 29.2962
rwrist 17.8049
rhand -39.0245 -2.87331
rfingers 7.12502
rthumb -12.0272 -32.5077
lclavicle 2.31584e-014 8.74653e-015
lhumerus 83.4024 28.8034 32.8036
lradius 32.9843
lwrist 26.9565
lhand -11.5394 33.4209
lfingers 7.12502
lthumb 14.5008 62.8942
rfemur -15.8077 9.27494 10.6113
rtibia 38.8261
rfoot -17.1397 2.99143
rtoes -8.20101
lfemur -6.03639 -0.724755 -14.4245
ltibia 31.8797
lfoot -19.3357 2.62871
ltoes -19.1696
1982
root -1.19627 17.4433 5.88122 352.09 -106.463 -353.442
lowerback 3.61674 -2.76732 -5.84332
upperback -3.48076 -4.13064 -0.420099
thorax -5.27678 -1.8486 3.15382
lowerneck -10.871 -5.45393 -17.8371
upperneck -21.9673 -5.95062 13.7579
head -3.84744 -2.87592 7.43023
rclavicle -1.98785e-015 1.59028e-014
rhumerus 89.7728 -35.9823 -38.5452
rradius 29.0961
rwrist 18.0453
rhand -38.8758 -3.095
rfingers 7.12502
rthumb -11.8839 -32.7377
lclavicle -1.98785e-015 1.59028e-014
lhumerus 82.9582 28.8212 32.1922
lradius 33.2672
lwrist 27.1762
lhand -11.6414 33.5653
lfingers 7.12502
lthumb 14.4025 63.0456
rfemur -16.0707 8.5705 10.6961
rtibia 39.5066
rfoot -17.7237 2.77546
rtoes -6.63392
lfemur -6.03739 -0.691377 -14.523
ltibia 31.7766
lfoot -19.1859 2.90432
ltoes -18.6753
